<?xml version="1.0" encoding="utf-8"?>
<!-- Generator: Adobe Illustrator 24.2.0, SVG Export Plug-In . SVG Version: 6.00 Build 0)  -->
<svg version="1.1" id="Layer_1" xmlns="http://www.w3.org/2000/svg" xmlns:xlink="http://www.w3.org/1999/xlink" x="0px" y="0px"
	 viewBox="0 0 232.6 189.3" style="enable-background:new 0 0 232.6 189.3;" xml:space="preserve">
<style type="text/css">
	.st0{fill:#002C77;}
</style>
<path class="st0" d="M229.1,98.8c-4-6.4-11-10.2-18.6-10.2h-7.6c4.6-9.1,7.5-18.7,7.6-28.8c0.2-10-2.2-19.9-6.9-28.8
	c-4.6-8.9-11.5-16.4-19.9-21.8C172.5,2.2,159.2-1,146,0.3c-16.6,1.5-29.8,9.6-41.3,23.2c-0.3-1-0.9-2-1.6-2.9
	C90.1,6.3,74.2-1,54.7,0.3C33.7,1.7,18.2,12.3,7.4,30c-6.1,10.1-8,21.3-7.3,33.1c0.7,13.5,5.5,25.5,14.7,35
	c29,29.6,58.5,58.7,87.7,88.2c2.3,2.3,3.4,2.2,5.5,0c6.3-6.6,12.8-13.1,19.4-19.5l4.1-3.3v3.8c0,5.1,1.8,10.1,5.1,14.1
	c1.2,1.6,2.7,2.9,4.4,4c3.7,2.6,8.1,4,12.6,4h19c4.5,0,8.9-1.4,12.6-4c1.3-0.9,2.5-1.9,3.5-3.1c3.8-4.1,5.9-9.4,5.9-15v-15.5h15.9
	c12.2,0,22-9.8,22.1-22v-19C232.6,106.5,231.4,102.4,229.1,98.8z M216.5,129.7c0,3.3-2.7,6-6,6h-31.9v31.6c0,3.3-2.7,6-6,6h-19
	c-3.3,0-6-2.7-6.1-6v-31.6h-31.4c-3.3,0-6-2.7-6-6v-19c0-3.3,2.7-6,6-6.1h31.4V73c0-3.3,2.7-6,6.1-6h19c3.3,0,6,2.7,6,6v31.6h31.8
	c3.3,0,6,2.7,6,6.1L216.5,129.7z"/>
</svg>
