<?xml version="1.0" encoding="utf-8"?>
<!-- Generator: Adobe Illustrator 24.2.3, SVG Export Plug-In . SVG Version: 6.00 Build 0)  -->
<svg version="1.1" id="Layer_1" xmlns="http://www.w3.org/2000/svg" xmlns:xlink="http://www.w3.org/1999/xlink" x="0px" y="0px"
	 viewBox="0 0 496 496" style="enable-background:new 0 0 496 496;" xml:space="preserve">
<style type="text/css">
	.st0{fill:#002C77;}
</style>
<path class="st0" d="M248,0C111,0,0,111.1,0,248c0,137,111,248,248,248s248-111,248-248C496,111.1,385,0,248,0z M248,110
	c23.2,0,42,18.8,42,42s-18.8,42-42,42s-42-18.8-42-42S224.8,110,248,110z M304,364c0,6.6-5.4,12-12,12h-88c-6.6,0-12-5.4-12-12v-24
	c0-6.6,5.4-12,12-12h12v-64h-12c-6.6,0-12-5.4-12-12v-24c0-6.6,5.4-12,12-12h64c6.6,0,12,5.4,12,12v100h12c6.6,0,12,5.4,12,12V364z"
	/>
</svg>
