<?xml version="1.0" encoding="utf-8"?>
<!-- Generator: Adobe Illustrator 24.2.0, SVG Export Plug-In . SVG Version: 6.00 Build 0)  -->
<svg version="1.1" id="Layer_1" xmlns="http://www.w3.org/2000/svg" xmlns:xlink="http://www.w3.org/1999/xlink" x="0px" y="0px"
	 viewBox="0 0 183.2 174" style="enable-background:new 0 0 183.2 174;" xml:space="preserve">
<style type="text/css">
	.st0{fill:#002C77;}
</style>
<g>
	<path class="st0" d="M169.8,162.6c-13.3,4.5-25.7,9.8-39.7,11.3V77.7c14.7-1.7,27.8-7.5,41.8-11.9c6.2-1.6,11.3,3.2,11.3,9.1v72.8
		C183.2,154.8,177.2,160.5,169.8,162.6z"/>
	<path class="st0" d="M101.5,110.1c-4.9,5.7-13.5,6.3-19.1,1.5c-0.5-0.5-1-0.9-1.5-1.5c-4-4.6-10.9-13-17.8-22.6v30.8v20.5v0.3v20
		v1.3c19.5,2,36.7,11.5,56.2,13.5v-14.9V153v-0.6v-34V87.6C112.4,97.2,105.5,105.5,101.5,110.1z"/>
	<path class="st0" d="M116,76.4c8.5-12.6,15.9-26.3,15.9-35.9C131.9,18.2,113.8,0,91.4,0h0C69,0,50.8,18.2,50.8,40.5v0
		c0,18.5,27.7,52.3,37.3,63.6c0.9,1,2.2,1.5,3.4,1.5c0.1,0,0.2,0,0.4,0c1.3,0,2.4-0.5,3.3-1.5L116,76.4z M91.5,27.6
		c7.4,0,13.5,6,13.5,13.5s-6,13.5-13.5,13.5c-7.4,0-13.5-6-13.5-13.5C78,33.6,84.1,27.6,91.5,27.6z"/>
	<path class="st0" d="M49.1,64.8c-12.4,2-23.6,6.7-35.6,10.8C6,77.7,0,83.4,0,90.5v70.8c0,7,6,12.7,13.4,10.6
		c13.4-4.5,25.6-9.8,39.7-11.3V72.2C51.6,69.6,50.3,67.2,49.1,64.8z"/>
</g>
</svg>
