<svg xmlns="http://www.w3.org/2000/svg" xmlns:xlink="http://www.w3.org/1999/xlink" width="500" zoomAndPan="magnify" viewBox="0 0 375 374.999991" height="500" preserveAspectRatio="xMidYMid meet" version="1.0"><defs><g/><clipPath id="id1"><path d="M 46.386719 34.609375 L 328.386719 34.609375 L 328.386719 316.609375 L 46.386719 316.609375 Z M 46.386719 34.609375 " clip-rule="nonzero"/></clipPath><clipPath id="id2"><path d="M 116.613281 110.027344 L 208 110.027344 L 208 201 L 116.613281 201 Z M 116.613281 110.027344 " clip-rule="nonzero"/></clipPath><clipPath id="id3"><path d="M 167 149 L 258.363281 149 L 258.363281 251.777344 L 167 251.777344 Z M 167 149 " clip-rule="nonzero"/></clipPath></defs><g clip-path="url(#id1)"><path fill="#009345" d="M 187.386719 316.609375 C 109.488281 316.609375 46.386719 253.074219 46.386719 175.609375 C 46.386719 98.148438 109.488281 34.609375 187.386719 34.609375 C 265.285156 34.609375 328.386719 97.710938 328.386719 175.609375 C 328.386719 253.507812 264.847656 316.609375 187.386719 316.609375 Z M 187.386719 43.3125 C 114.273438 43.3125 55.089844 102.5 55.089844 175.609375 C 55.089844 248.71875 114.273438 307.90625 187.386719 307.90625 C 260.496094 307.90625 319.683594 248.71875 319.683594 175.609375 C 319.683594 102.5 260.0625 43.3125 187.386719 43.3125 Z M 187.386719 43.3125 " fill-opacity="1" fill-rule="nonzero"/></g><g fill="#3871c1" fill-opacity="1"><g transform="translate(90.153376, 198.143055)"><g><path d="M -0.890625 -26.796875 L -15.046875 -26.265625 L -3.296875 -19.75 L -3.1875 -16.390625 L -14.125 -9.21875 L -0.328125 -9.671875 L -0.09375 -2.671875 L -26.828125 -1.78125 L -27.03125 -8.015625 L -11.921875 -17.90625 L -27.640625 -26.5625 L -27.859375 -32.78125 L -1.125 -33.75 Z M -0.890625 -26.796875 "/></g></g></g><g fill="#3871c1" fill-opacity="1"><g transform="translate(89.653378, 162.383161)"><g><path d="M -4.484375 -19 L 4.734375 -16.328125 L 2.625 -9.0625 L -6.6875 -11.765625 L -25.90625 -6.703125 L -23.6875 -14.375 L -11.71875 -17.515625 L -20.15625 -26.5625 L -18.109375 -33.59375 Z M -4.484375 -19 "/></g></g></g><g fill="#3871c1" fill-opacity="1"><g transform="translate(97.982184, 136.591207)"><g/></g></g><g fill="#3871c1" fill-opacity="1"><g transform="translate(102.501751, 125.751235)"><g><path d="M -2.296875 -38.734375 L 18.140625 -21.484375 L 13.25 -15.703125 L 5.28125 -22.421875 L -1.359375 -14.53125 L 6.609375 -7.8125 L 1.71875 -2.046875 L -18.71875 -19.296875 L -13.828125 -25.0625 L -6.140625 -18.578125 L 0.5 -26.46875 L -7.1875 -32.953125 Z M -2.296875 -38.734375 "/></g></g></g><g fill="#3871c1" fill-opacity="1"><g transform="translate(122.408855, 102.671483)"><g><path d="M 16.921875 -18.1875 L 20.140625 -13.3125 L 2.234375 -1.46875 L -12.515625 -23.78125 L 4.96875 -35.34375 L 8.203125 -30.453125 L -3.046875 -23.015625 L -0.5625 -19.265625 L 9.359375 -25.828125 L 12.46875 -21.109375 L 2.546875 -14.546875 L 5.25 -10.46875 Z M 16.921875 -18.1875 "/></g></g></g><g fill="#3871c1" fill-opacity="1"><g transform="translate(143.489496, 88.33307)"><g><path d="M 18.109375 -11.09375 L 7.3125 -7.734375 L 6.859375 -2.140625 L -0.5 0.15625 L 2.796875 -28.890625 L 9.921875 -31.109375 L 29.1875 -9.078125 L 21.65625 -6.75 Z M 14.34375 -15.75 L 8.515625 -22.890625 L 7.78125 -13.703125 Z M 14.34375 -15.75 "/></g></g></g><g fill="#3871c1" fill-opacity="1"><g transform="translate(172.123759, 79.873286)"><g><path d="M 1.859375 -26.8125 L 9.421875 -27.046875 L 10.046875 -6.3125 L 22.796875 -6.703125 L 22.984375 -0.703125 L 2.671875 -0.078125 Z M 1.859375 -26.8125 "/></g></g></g><g fill="#3871c1" fill-opacity="1"><g transform="translate(195.598027, 79.122739)"><g><path d="M 12.59375 -18.484375 L 4.578125 -20.234375 L 5.859375 -26.109375 L 29.265625 -21 L 27.984375 -15.125 L 20 -16.875 L 15.578125 3.390625 L 8.171875 1.78125 Z M 12.59375 -18.484375 "/></g></g></g><g fill="#3871c1" fill-opacity="1"><g transform="translate(219.275663, 83.796462)"><g><path d="M 37.453125 -10.21875 L 24.765625 13.328125 L 18.09375 9.75 L 23.03125 0.578125 L 13.953125 -4.3125 L 9.015625 4.859375 L 2.359375 1.265625 L 15.046875 -22.28125 L 21.703125 -18.6875 L 16.921875 -9.828125 L 26 -4.9375 L 30.78125 -13.796875 Z M 37.453125 -10.21875 "/></g></g></g><g fill="#3871c1" fill-opacity="1"><g transform="translate(245.964288, 98.318303)"><g><path d="M 10.875 11.75 C 8.90625 9.769531 7.554688 7.566406 6.828125 5.140625 C 6.109375 2.722656 6.050781 0.320312 6.65625 -2.0625 C 7.257812 -4.457031 8.515625 -6.597656 10.421875 -8.484375 C 12.316406 -10.359375 14.46875 -11.582031 16.875 -12.15625 C 19.28125 -12.738281 21.6875 -12.648438 24.09375 -11.890625 C 26.5 -11.140625 28.6875 -9.773438 30.65625 -7.796875 C 32.375 -6.054688 33.613281 -4.179688 34.375 -2.171875 C 35.132812 -0.171875 35.390625 1.863281 35.140625 3.9375 L 28.671875 3.578125 C 28.929688 0.867188 28.191406 -1.363281 26.453125 -3.125 C 25.441406 -4.15625 24.3125 -4.847656 23.0625 -5.203125 C 21.8125 -5.566406 20.550781 -5.5625 19.28125 -5.1875 C 18.019531 -4.8125 16.859375 -4.097656 15.796875 -3.046875 C 14.722656 -1.984375 13.992188 -0.828125 13.609375 0.421875 C 13.222656 1.679688 13.203125 2.9375 13.546875 4.1875 C 13.898438 5.445312 14.582031 6.59375 15.59375 7.625 C 17.332031 9.382812 19.550781 10.144531 22.25 9.90625 L 22.546875 16.390625 C 20.472656 16.609375 18.4375 16.320312 16.4375 15.53125 C 14.445312 14.75 12.59375 13.488281 10.875 11.75 Z M 10.875 11.75 "/></g></g></g><g fill="#3871c1" fill-opacity="1"><g transform="translate(265.688377, 118.010312)"><g><path d="M 14.21875 15.765625 L 8.921875 5.765625 L 3.359375 6.359375 L -0.25 -0.46875 L 28.921875 -2.53125 L 32.40625 4.046875 L 14.28125 27.015625 L 10.59375 20.0625 Z M 18.09375 11.21875 L 24.078125 4.171875 L 14.890625 5.140625 Z M 18.09375 11.21875 "/></g></g></g><g fill="#3871c1" fill-opacity="1"><g transform="translate(279.480601, 144.267385)"><g><path d="M 9.71875 12.734375 L 8.9375 8.6875 L 1.953125 10.046875 L 0.515625 2.625 L 26.78125 -2.484375 L 29.109375 9.515625 C 29.566406 11.890625 29.566406 14.03125 29.109375 15.9375 C 28.660156 17.84375 27.796875 19.410156 26.515625 20.640625 C 25.242188 21.867188 23.617188 22.675781 21.640625 23.0625 C 19.742188 23.4375 18.003906 23.316406 16.421875 22.703125 C 14.835938 22.085938 13.484375 21.035156 12.359375 19.546875 L 5.21875 26.8125 L 3.671875 18.859375 Z M 20.1875 15.5625 C 21.414062 15.320312 22.289062 14.75 22.8125 13.84375 C 23.34375 12.9375 23.457031 11.722656 23.15625 10.203125 L 22.359375 6.078125 L 14.671875 7.578125 L 15.46875 11.703125 C 15.769531 13.222656 16.320312 14.304688 17.125 14.953125 C 17.9375 15.597656 18.957031 15.800781 20.1875 15.5625 Z M 20.1875 15.5625 "/></g></g></g><g fill="#3871c1" fill-opacity="1"><g transform="translate(284.69356, 171.885299)"><g><path d="M 3.84375 24.546875 L -1.984375 24.0625 L -0.21875 2.65625 L 26.4375 4.859375 L 24.71875 25.765625 L 18.875 25.28125 L 19.984375 11.84375 L 15.5 11.46875 L 14.515625 23.3125 L 8.890625 22.84375 L 9.875 11 L 5 10.609375 Z M 3.84375 24.546875 "/></g></g></g><g fill="#009345" fill-opacity="1"><g transform="translate(119.106244, 275.382452)"><g><path d="M 23.78125 -1.109375 L 25.9375 0 L 21.78125 8.046875 C 20.34375 8.410156 18.828125 8.472656 17.234375 8.234375 C 15.648438 8.003906 14.113281 7.507812 12.625 6.75 C 10.507812 5.65625 8.84375 4.207031 7.625 2.40625 C 6.414062 0.613281 5.75 -1.351562 5.625 -3.5 C 5.5 -5.644531 5.960938 -7.726562 7.015625 -9.75 C 8.054688 -11.789062 9.484375 -13.378906 11.296875 -14.515625 C 13.117188 -15.660156 15.113281 -16.257812 17.28125 -16.3125 C 19.457031 -16.375 21.613281 -15.851562 23.75 -14.75 C 25.363281 -13.925781 26.707031 -12.910156 27.78125 -11.703125 C 28.863281 -10.492188 29.609375 -9.148438 30.015625 -7.671875 L 27.890625 -6.953125 C 27.078125 -9.460938 25.378906 -11.382812 22.796875 -12.71875 C 21.097656 -13.59375 19.363281 -14.007812 17.59375 -13.96875 C 15.820312 -13.925781 14.195312 -13.4375 12.71875 -12.5 C 11.25 -11.570312 10.085938 -10.273438 9.234375 -8.609375 C 8.378906 -6.960938 8.003906 -5.273438 8.109375 -3.546875 C 8.210938 -1.816406 8.75 -0.21875 9.71875 1.25 C 10.6875 2.726562 12.03125 3.90625 13.75 4.78125 C 15.914062 5.90625 18.035156 6.316406 20.109375 6.015625 Z M 23.78125 -1.109375 "/></g></g></g><g fill="#009345" fill-opacity="1"><g transform="translate(145.791144, 288.56635)"><g><path d="M 19.53125 4.859375 L 16.09375 -3.875 C 15.488281 -3.957031 14.867188 -4.078125 14.234375 -4.234375 L 8.03125 -5.78125 L 6.203125 1.546875 L 3.765625 0.9375 L 9.515625 -22.15625 L 18.15625 -20 C 21.09375 -19.269531 23.21875 -17.988281 24.53125 -16.15625 C 25.851562 -14.332031 26.210938 -12.191406 25.609375 -9.734375 C 25.160156 -7.929688 24.320312 -6.519531 23.09375 -5.5 C 21.875 -4.488281 20.351562 -3.921875 18.53125 -3.796875 L 22.203125 5.53125 Z M 14.671875 -6.34375 C 16.960938 -5.769531 18.835938 -5.835938 20.296875 -6.546875 C 21.753906 -7.253906 22.710938 -8.519531 23.171875 -10.34375 C 23.628906 -12.207031 23.378906 -13.789062 22.421875 -15.09375 C 21.460938 -16.394531 19.835938 -17.332031 17.546875 -17.90625 L 11.421875 -19.421875 L 8.546875 -7.859375 Z M 14.671875 -6.34375 "/></g></g></g><g fill="#009345" fill-opacity="1"><g transform="translate(173.234791, 295.187381)"><g><path d="M 14.28125 0.234375 C 11.914062 0.222656 9.773438 -0.304688 7.859375 -1.359375 C 5.953125 -2.410156 4.460938 -3.859375 3.390625 -5.703125 C 2.316406 -7.546875 1.785156 -9.609375 1.796875 -11.890625 C 1.796875 -14.179688 2.335938 -16.238281 3.421875 -18.0625 C 4.503906 -19.894531 6 -21.335938 7.90625 -22.390625 C 9.820312 -23.453125 11.960938 -23.976562 14.328125 -23.96875 C 16.679688 -23.96875 18.800781 -23.441406 20.6875 -22.390625 C 22.582031 -21.335938 24.070312 -19.882812 25.15625 -18.03125 C 26.238281 -16.1875 26.78125 -14.117188 26.78125 -11.828125 C 26.769531 -9.546875 26.21875 -7.484375 25.125 -5.640625 C 24.03125 -3.796875 22.535156 -2.351562 20.640625 -1.3125 C 18.753906 -0.28125 16.632812 0.234375 14.28125 0.234375 Z M 14.28125 -2.015625 C 16.15625 -2.015625 17.851562 -2.4375 19.375 -3.28125 C 20.894531 -4.125 22.085938 -5.296875 22.953125 -6.796875 C 23.816406 -8.304688 24.253906 -9.988281 24.265625 -11.84375 C 24.265625 -13.707031 23.832031 -15.390625 22.96875 -16.890625 C 22.113281 -18.398438 20.925781 -19.582031 19.40625 -20.4375 C 17.894531 -21.289062 16.203125 -21.71875 14.328125 -21.71875 C 12.441406 -21.71875 10.734375 -21.296875 9.203125 -20.453125 C 7.671875 -19.609375 6.46875 -18.429688 5.59375 -16.921875 C 4.71875 -15.421875 4.28125 -13.738281 4.28125 -11.875 C 4.269531 -10.019531 4.695312 -8.335938 5.5625 -6.828125 C 6.4375 -5.328125 7.632812 -4.148438 9.15625 -3.296875 C 10.6875 -2.441406 12.394531 -2.015625 14.28125 -2.015625 Z M 14.28125 -2.015625 "/></g></g></g><g fill="#009345" fill-opacity="1"><g transform="translate(205.50305, 294.680661)"><g><path d="M 13.078125 -3.125 C 10.097656 -2.363281 7.554688 -2.625 5.453125 -3.90625 C 3.347656 -5.195312 1.878906 -7.476562 1.046875 -10.75 L -2.328125 -23.96875 L 0.109375 -24.59375 L 3.453125 -11.484375 C 4.140625 -8.804688 5.253906 -6.960938 6.796875 -5.953125 C 8.335938 -4.941406 10.25 -4.726562 12.53125 -5.3125 C 14.84375 -5.90625 16.429688 -7.015625 17.296875 -8.640625 C 18.171875 -10.265625 18.265625 -12.414062 17.578125 -15.09375 L 14.234375 -28.203125 L 16.609375 -28.8125 L 19.984375 -15.59375 C 20.816406 -12.320312 20.617188 -9.613281 19.390625 -7.46875 C 18.171875 -5.332031 16.066406 -3.882812 13.078125 -3.125 Z M 13.078125 -3.125 "/></g></g></g><g fill="#009345" fill-opacity="1"><g transform="translate(234.844984, 286.606781)"><g><path d="M 0.234375 -27.015625 C 2.921875 -28.421875 5.363281 -28.878906 7.5625 -28.390625 C 9.757812 -27.910156 11.445312 -26.550781 12.625 -24.3125 C 13.8125 -22.0625 13.976562 -19.898438 13.125 -17.828125 C 12.269531 -15.753906 10.5 -14.015625 7.8125 -12.609375 L 2.15625 -9.625 L 5.65625 -2.96875 L 3.421875 -1.796875 L -7.65625 -22.859375 Z M 6.71875 -14.515625 C 8.800781 -15.617188 10.15625 -16.914062 10.78125 -18.40625 C 11.40625 -19.894531 11.28125 -21.472656 10.40625 -23.140625 C 9.507812 -24.835938 8.269531 -25.851562 6.6875 -26.1875 C 5.101562 -26.519531 3.269531 -26.132812 1.1875 -25.03125 L -4.40625 -22.09375 L 1.125 -11.578125 Z M 6.71875 -14.515625 "/></g></g></g><g clip-path="url(#id2)"><path fill="#009345" d="M 207.363281 156.191406 L 207.363281 110.011719 L 167.578125 110.011719 L 167.578125 160.988281 L 116.601562 160.988281 L 116.601562 200.777344 L 167.546875 200.777344 C 172.996094 187.394531 184.644531 166.925781 207.363281 156.191406 " fill-opacity="1" fill-rule="nonzero"/></g><g clip-path="url(#id3)"><path fill="#3871c1" d="M 216.375 160.988281 C 226.542969 152.5 235.683594 149.203125 235.683594 149.203125 C 235.300781 149.253906 234.9375 149.316406 234.566406 149.371094 C 226.074219 150.824219 171.984375 163.523438 167.578125 251.753906 L 207.363281 251.753906 L 207.363281 200.777344 L 258.34375 200.777344 L 258.34375 160.988281 L 216.375 160.988281 " fill-opacity="1" fill-rule="nonzero"/></g></svg>