<?xml version="1.0" encoding="utf-8"?>
<!-- Generator: Adobe Illustrator 24.2.0, SVG Export Plug-In . SVG Version: 6.00 Build 0)  -->
<svg version="1.1" id="Layer_1" xmlns="http://www.w3.org/2000/svg" xmlns:xlink="http://www.w3.org/1999/xlink" x="0px" y="0px"
	 viewBox="0 0 136.9 107.9" style="enable-background:new 0 0 136.9 107.9;" xml:space="preserve">
<style type="text/css">
	.st0{fill:#002C77;}
</style>
<path class="st0" d="M125.1,0H11.9C5.3,0,0,5.3,0,11.9V96c0,6.6,5.3,11.9,11.9,11.9c0,0,0,0,0,0h113.2c6.6,0,11.9-5.3,11.9-11.9
	c0,0,0,0,0,0V11.9C136.9,5.3,131.6,0,125.1,0z M42,25.1c8.1,0,14.7,6.6,14.7,14.7c0,8.1-6.6,14.7-14.7,14.7
	c-8.1,0-14.7-6.6-14.7-14.7C27.3,31.7,33.9,25.1,42,25.1z M67.6,79c0,1.3-0.8,2.4-1.9,2.8c-0.3,0.1-0.7,0.2-1,0.3l0,0H19.3l0,0
	c-0.3-0.1-0.7-0.1-1-0.3c-1.2-0.4-2-1.5-2-2.8v-4.4c-0.9-11.8,10.2-13.4,13-13.6c0.4,0,0.8,0,1.2,0.2c7.4,2.4,15.4,2.4,22.9,0
	c0.4-0.1,0.8-0.2,1.2-0.2c2.8,0.2,13.9,1.8,13,13.6L67.6,79z M120.6,65.4c0,1.2-1,2.2-2.2,2.2c0,0,0,0,0,0H84.6
	c-1.2,0-2.2-1-2.2-2.2c0,0,0,0,0,0V63c0-1.2,1-2.2,2.2-2.2c0,0,0,0,0,0h33.9c1.2,0,2.2,1,2.2,2.2c0,0,0,0,0,0L120.6,65.4z
	 M120.6,50.3c0,1.2-1,2.2-2.2,2.2c0,0,0,0,0,0H84.6c-1.2,0-2.2-1-2.2-2.2c0,0,0,0,0,0v-2.4c0-1.2,1-2.2,2.2-2.2c0,0,0,0,0,0h33.9
	c1.2,0,2.2,1,2.2,2.2c0,0,0,0,0,0L120.6,50.3z M120.6,35.1c0,1.2-1,2.2-2.2,2.2c0,0,0,0,0,0H84.6c-1.2,0-2.2-1-2.2-2.2c0,0,0,0,0,0
	v-2.4c0-1.2,1-2.2,2.2-2.2c0,0,0,0,0,0h33.9c1.2,0,2.2,1,2.2,2.2c0,0,0,0,0,0L120.6,35.1z"/>
</svg>